<svg width="546" height="285" viewBox="0 0 546 285" fill="none" xmlns="http://www.w3.org/2000/svg">
<path d="M267.512 129.477C234.992 92.4503 212.08 74.9255 164.685 52.9741C164.454 52.8668 164.301 52.6364 164.301 52.3859V23.7195C164.301 23.2136 164.881 22.9109 165.322 23.1753C222.224 57.2772 247.028 80.4363 268.612 128.805C268.917 129.484 268.004 130.04 267.512 129.477Z" fill="#343F56"/>
<path d="M99.7099 75.5588C177.647 87.8409 213.598 105.904 266.422 147.931C267.023 148.409 267.825 147.67 267.368 147.06C225.122 90.7415 182.333 68.1079 100.027 41.2075C99.5979 41.0673 99.1436 41.3759 99.1436 41.8181V74.9177C99.1436 75.2358 99.3885 75.5083 99.7099 75.5588Z" fill="#343F56"/>
<path d="M20.1785 76.5532C25.5273 87.123 68.2216 171.429 68.2216 169.405C68.2216 168.004 61.1434 149.32 53.2268 128.423C49.0787 117.473 44.7001 105.916 40.9894 95.9194C40.818 95.4575 41.2362 94.9968 41.7332 95.0705C160.791 112.728 208.908 128.977 259.069 167.533C259.63 167.964 260.388 167.371 260.041 166.762C234.124 121.26 159.494 93.2415 20.8736 75.6273C20.3489 75.5608 19.9439 76.0896 20.1785 76.5532Z" fill="#343F56"/>
<path d="M278.648 129.477C311.166 92.4503 334.077 74.9255 381.474 52.9741C381.703 52.8668 381.858 52.6364 381.858 52.3859V23.7195C381.858 23.2136 381.277 22.9109 380.835 23.1753C323.935 57.2772 299.129 80.4363 277.546 128.805C277.243 129.484 278.153 130.04 278.648 129.477Z" fill="#343F56"/>
<path d="M446.447 75.5588C368.511 87.8409 332.56 105.904 279.736 147.931C279.136 148.409 278.332 147.67 278.791 147.06C321.035 90.7415 363.824 68.1079 446.131 41.2075C446.559 41.0673 447.014 41.3759 447.014 41.8181V74.9177C447.014 75.2358 446.769 75.5083 446.447 75.5588Z" fill="#343F56"/>
<path d="M525.978 76.5532C520.631 87.123 477.936 171.429 477.936 169.405C477.936 168.004 485.013 149.322 492.929 128.426L492.931 128.423L492.936 128.411L492.945 128.387L492.947 128.379C497.09 117.442 501.461 105.903 505.168 95.9194C505.34 95.4575 504.92 94.9968 504.425 95.0705C385.366 112.728 337.249 128.977 287.09 167.533C286.529 167.964 285.769 167.371 286.116 166.762C312.035 121.26 386.662 93.2415 525.284 75.6273C525.808 75.5608 526.214 76.0896 525.978 76.5532Z" fill="#343F56"/>
<path d="M75.0723 253.216C75.0723 253.216 68.7856 250.502 68.7856 228.281C68.7856 206.06 75.0723 203.447 75.0723 203.447C75.0723 203.447 54.708 210.126 54.708 228.642C54.708 247.167 75.0723 253.216 75.0723 253.216ZM87.8499 215.276C91.2486 215.276 93.9415 212.84 93.9415 209.857C93.9415 206.783 91.2486 204.346 87.8499 204.346C84.5626 204.346 81.7675 206.783 81.7675 209.857C81.7675 212.84 84.5626 215.276 87.8499 215.276Z" fill="#343F56"/>
<path d="M113.609 252.132H125.895V232.171C125.895 225.576 119.107 219.25 106.821 221.779C106.821 221.779 113.609 222.778 113.609 228.558V252.132ZM101.834 234.069C105.131 234.069 107.926 231.625 107.926 228.558C107.926 225.576 105.131 223.14 101.834 223.14C98.4358 223.14 95.7429 225.576 95.7429 228.558C95.7429 231.625 98.4358 234.069 101.834 234.069ZM105.131 252.947C107.128 252.586 109.718 251.863 111.316 250.594C108.325 251.141 105.428 249.418 104.63 246.806C103.432 242.739 106.422 238.043 108.92 236.145C107.128 236.145 105.53 236.237 103.831 236.682C100.534 237.682 97.3401 239.488 95.7429 242.286C93.9414 245.083 94.2478 248.973 96.8386 251.409C98.9373 253.4 102.234 253.484 105.131 252.947Z" fill="#343F56"/>
<path d="M151.959 252.131H164.235V232.17C164.235 223.408 156.945 217.989 145.867 223.315C145.867 223.315 151.959 222.778 151.959 228.558V252.131ZM174.115 252.131H186.401V232.17C186.401 223.408 179.213 217.989 168.126 223.315C168.126 223.315 174.115 222.778 174.115 228.558V252.131ZM129.793 252.131H142.171V222.055H129.793V252.131Z" fill="#343F56"/>
<path d="M208.963 253.039C217.655 251.863 224.145 245.083 224.145 237.135C224.145 237.135 224.145 236.959 224.145 236.867C224.145 228.827 217.655 222.055 208.963 220.972C211.665 222.417 213.262 226.752 213.262 237.32C213.262 247.612 211.563 251.585 208.963 253.039ZM190.298 269.656H202.676V222.055H190.298V269.656Z" fill="#343F56"/>
<path d="M244.407 250.863C244.407 250.863 238.315 251.409 238.315 245.537V222.056H226.039V242.017C226.039 250.779 233.226 256.198 244.407 250.863ZM248.103 252.132H260.388V222.056H248.103V252.132Z" fill="#343F56"/>
<path d="M277.16 253.215C284.347 253.215 290.541 248.25 290.541 243.1C290.541 232.263 272.164 234.607 272.164 225.937C272.164 224.131 273.167 222.778 275.265 221.333C268.069 221.333 263.082 226.298 263.082 230.541C263.082 240.572 280.753 238.581 280.753 246.713C280.753 249.242 279.555 251.585 277.16 253.215ZM281.951 230.633C284.746 230.633 286.947 228.558 286.947 226.029C286.947 223.5 284.644 221.417 281.951 221.417C279.156 221.417 276.862 223.5 276.862 226.029C276.862 228.558 279.156 230.633 281.951 230.633ZM268.774 252.678C272.164 252.678 274.866 250.233 274.866 247.166C274.866 244.092 272.164 241.655 268.774 241.655C265.478 241.655 262.683 244.092 262.683 247.166C262.683 250.233 265.478 252.678 268.774 252.678Z" fill="#343F56"/>
<path d="M310.409 252.039H322.787V204.531L310.409 204.438V252.039ZM352.438 253.123C347.646 252.4 352.837 239.396 346.848 233.523C342.158 229.188 334.869 228.466 331.47 228.281C335.862 228.197 347.052 226.836 347.052 216.452C347.052 204.531 327.978 204.531 327.978 204.531C327.978 204.531 336.568 204.892 336.568 216.267C336.568 227.743 329.873 228.281 329.873 228.281C329.873 228.281 333.466 228.919 336.661 232.532C340.162 236.321 336.466 246.352 341.155 250.687C345.055 254.207 352.438 253.123 352.438 253.123Z" fill="#343F56"/>
<path d="M369.915 253.215C373.109 253.308 376.202 252.493 378.895 251.048C372.803 252.316 365.123 249.603 365.123 243.462V226.029C365.123 223.408 366.916 221.602 369.311 221.241C359.728 221.51 352.142 228.558 352.142 237.228C352.142 246.083 360.128 253.215 369.915 253.215ZM375.208 235.783H386.286C386.286 231.902 384.29 221.241 370.407 221.241C372.71 221.51 375.208 223.408 375.208 228.466V235.783Z" fill="#343F56"/>
<path d="M405.352 252.132H417.638V232.171C417.638 225.576 410.85 219.25 398.564 221.779C398.564 221.779 405.352 222.778 405.352 228.558V252.132ZM393.578 234.069C396.874 234.069 399.669 231.625 399.669 228.558C399.669 225.576 396.874 223.14 393.578 223.14C390.179 223.14 387.486 225.576 387.486 228.558C387.486 231.625 390.179 234.069 393.578 234.069ZM396.874 252.947C398.871 252.586 401.462 251.863 403.059 250.594C400.069 251.141 397.171 249.418 396.373 246.806C395.175 242.739 398.165 238.043 400.663 236.145C398.871 236.145 397.274 236.237 395.574 236.682C392.278 237.682 389.083 239.488 387.486 242.286C385.685 245.083 385.991 248.973 388.582 251.409C390.68 253.4 393.977 253.484 396.874 252.947Z" fill="#343F56"/>
<path d="M440.999 252.132H453.284V204.531H440.999V252.132ZM434.61 253.215C432.019 251.863 430.422 247.435 430.422 236.867C430.422 226.567 432.112 222.593 434.61 221.241C425.927 222.324 419.437 229.096 419.437 237.043V237.32V237.404C419.437 245.36 425.927 252.132 434.61 253.215Z" fill="#343F56"/>
<path d="M483.435 232.171C486.824 232.171 489.527 229.734 489.527 226.659C489.527 223.677 486.824 221.241 483.435 221.241C480.138 221.241 477.343 223.677 477.343 226.659C477.343 229.734 480.138 232.171 483.435 232.171ZM471.456 253.215L477.845 241.471L466.757 222.056H454.379L471.456 253.215ZM460.471 269.749C463.86 269.749 466.562 267.22 466.562 264.238C466.562 261.163 463.86 258.727 460.471 258.727C457.174 258.727 454.379 261.163 454.379 264.238C454.379 267.22 457.174 269.749 460.471 269.749Z" fill="#343F56"/>
</svg>
